<svg xmlns="http://www.w3.org/2000/svg" version="1.0" width="45" height="45" viewBox="0 0 1729.000000 2137.000000" preserveAspectRatio="xMidYMid meet" style="&#10;    height: 50px;&#10;    width: 50px;&#10;    float: left;&#10;">

<g transform="translate(0.000000,2137.000000) scale(0.100000,-0.100000)" fill="#f6892a" stroke="none">
<path d="M8410 20909 c-559 -22 -1075 -184 -1512 -475 -641 -425 -1113 -1093 -1473 -2084 -218 -601 -385 -1343 -540 -2400 -20 -135 -52 -330 -71 -435 -54 -296 -151 -708 -171 -725 -5 -4 -78 -56 -163 -115 -724 -505 -1389 -1140 -2026 -1935 -1213 -1513 -1859 -3064 -1965 -4719 -15 -238 -6 -826 15 -1056 167 -1742 929 -3374 2146 -4594 837 -840 1863 -1438 2895 -1691 298 -73 554 -104 850 -104 414 -1 679 55 1056 222 259 115 419 221 595 397 102 102 180 215 267 390 284 573 290 1272 16 2003 -74 198 -159 379 -307 655 -221 413 -294 570 -347 753 -80 276 -89 583 -24 914 47 244 156 609 229 766 103 222 304 527 459 696 74 81 183 164 231 178 141 40 494 -364 721 -825 105 -215 214 -572 270 -890 20 -111 23 -164 23 -355 0 -195 -3 -239 -22 -330 -52 -240 -131 -428 -367 -870 -305 -572 -416 -864 -497 -1317 -20 -113 -23 -160 -23 -408 0 -305 6 -358 66 -585 51 -193 132 -380 251 -580 92 -153 319 -359 531 -482 159 -92 446 -210 630 -259 209 -55 364 -72 637 -73 412 -1 773 61 1232 210 767 250 1522 686 2181 1261 1207 1054 2064 2555 2381 4172 335 1704 48 3419 -840 5038 -603 1098 -1546 2237 -2499 3018 -164 134 -390 306 -565 427 l-135 94 -43 169 c-60 235 -134 614 -177 905 -165 1123 -325 1841 -546 2461 -382 1072 -929 1802 -1658 2214 -368 208 -851 344 -1281 360 -74 3 -162 7 -195 8 -33 2 -139 0 -235 -4z m445 -609 c1008 -86 1728 -667 2228 -1800 279 -632 476 -1426 657 -2653 22 -152 49 -326 60 -385 27 -145 26 -174 -6 -211 -32 -39 -48 -39 -195 -2 -225 56 -297 65 -529 65 -236 0 -327 -11 -530 -65 -321 -85 -498 -182 -1053 -577 -334 -238 -531 -353 -701 -409 -111 -37 -258 -39 -361 -5 -181 60 -400 187 -765 448 -400 285 -527 365 -706 440 -308 129 -587 182 -894 171 -172 -7 -287 -23 -462 -67 -142 -36 -162 -37 -193 -5 -34 33 -33 64 10 330 19 121 55 354 80 517 144 947 311 1631 539 2210 399 1015 960 1630 1712 1877 206 68 390 104 639 124 94 8 359 6 470 -3z m-2467 -5609 c210 -41 412 -126 612 -258 58 -39 211 -145 340 -237 302 -215 439 -303 625 -397 240 -121 419 -170 631 -170 144 -1 255 18 396 67 259 90 429 190 944 555 376 266 480 325 705 397 159 51 256 66 429 65 120 0 178 -5 260 -22 145 -31 296 -82 420 -143 88 -44 118 -65 185 -133 66 -65 93 -102 145 -200 36 -66 89 -178 118 -250 219 -530 387 -876 624 -1290 80 -137 224 -389 323 -560 755 -1314 1097 -2098 1294 -2970 344 -1522 232 -3069 -324 -4480 -136 -343 -337 -758 -519 -1070 -277 -473 -730 -1080 -967 -1296 -111 -101 -230 -199 -241 -199 -19 0 -4 34 65 141 499 782 903 1703 1175 2679 194 696 272 1218 259 1730 -9 347 -45 612 -133 961 -257 1027 -963 2237 -1678 2878 -239 215 -436 353 -671 472 -575 290 -1084 274 -1568 -48 -135 -90 -262 -199 -437 -372 -224 -223 -353 -316 -544 -391 -173 -69 -295 -74 -456 -20 -218 73 -354 166 -615 420 -257 251 -388 353 -586 458 -239 127 -509 181 -764 152 -424 -47 -846 -260 -1286 -645 -653 -573 -1321 -1652 -1631 -2635 -137 -433 -196 -792 -205 -1237 -8 -386 14 -628 93 -1037 215 -1107 716 -2386 1289 -3286 139 -219 151 -250 78 -195 -174 131 -324 283 -521 529 -1340 1671 -1912 3749 -1611 5851 96 670 266 1284 525 1892 224 526 491 1035 1057 2016 402 695 514 917 718 1416 93 226 202 446 263 529 124 168 457 313 816 356 70 8 270 -4 368 -23z m-2168 -1034 c0 -17 -113 -246 -195 -397 -37 -69 -180 -321 -318 -560 -138 -239 -313 -547 -390 -685 -714 -1284 -1037 -2130 -1217 -3198 -322 -1909 14 -3810 967 -5476 223 -389 406 -656 783 -1144 33 -43 60 -82 60 -88 0 -16 -104 55 -260 177 -590 460 -1133 1064 -1534 1705 -519 831 -854 1742 -990 2689 -51 354 -60 498 -60 915 0 417 9 559 60 915 167 1170 659 2325 1459 3421 362 496 664 850 1094 1280 397 397 541 515 541 446z m8964 -121 c156 -139 567 -553 720 -726 1145 -1290 1839 -2595 2111 -3964 86 -432 119 -781 119 -1251 0 -471 -33 -819 -120 -1254 -317 -1598 -1182 -3031 -2430 -4027 -141 -113 -281 -210 -290 -201 -7 7 19 45 105 152 344 426 697 978 953 1490 446 891 715 1816 822 2825 71 669 47 1467 -65 2170 -141 882 -387 1623 -845 2540 -217 433 -337 652 -903 1635 -239 415 -389 710 -377 742 9 23 74 -19 200 -131z m-6432 -2995 c180 -46 355 -164 622 -420 189 -182 286 -262 431 -360 192 -129 407 -222 593 -257 129 -24 364 -15 487 19 213 59 387 147 595 300 112 82 191 151 391 343 303 289 505 394 753 394 555 -1 1260 -568 1836 -1475 129 -202 244 -410 366 -660 257 -527 394 -958 461 -1455 25 -189 25 -646 -1 -845 -116 -905 -490 -2040 -968 -2938 -467 -879 -997 -1501 -1490 -1748 -253 -127 -533 -170 -743 -115 -185 49 -488 254 -599 405 -86 116 -168 324 -208 523 -29 149 -32 426 -4 593 56 346 172 658 401 1080 362 669 471 991 492 1453 20 460 -132 1163 -346 1596 -264 535 -606 953 -902 1101 -125 63 -191 80 -319 80 -166 0 -275 -39 -449 -158 -319 -219 -751 -862 -911 -1356 -247 -766 -275 -1365 -88 -1925 60 -179 152 -381 304 -666 181 -339 225 -429 284 -571 138 -336 203 -627 203 -919 0 -170 -12 -275 -49 -416 -55 -215 -145 -387 -263 -505 -77 -77 -253 -200 -368 -257 -239 -121 -559 -105 -868 43 -365 175 -775 581 -1145 1135 -638 955 -1168 2350 -1332 3509 -30 211 -33 737 -5 926 49 331 123 619 238 926 228 608 599 1251 1000 1734 107 129 390 412 499 499 258 206 516 340 750 390 98 22 262 20 352 -3z"/>
</g>
</svg>